<svg width="156" height="32" viewBox="0 0 156 32" fill="none" xmlns="http://www.w3.org/2000/svg">
<g clip-path="url(#clip0)">
<path fill-rule="evenodd" clip-rule="evenodd" d="M139.134 7.33582H135.878C135.805 7.33582 135.738 7.37967 135.708 7.44769L130.754 18.7416L125.798 7.44769C125.769 7.37967 125.702 7.33582 125.629 7.33582H122.348C122.285 7.33582 122.226 7.36938 122.192 7.42352C122.158 7.47767 122.154 7.54613 122.181 7.60475L130.538 25.452C130.569 25.5173 130.634 25.559 130.705 25.559H130.801C130.873 25.559 130.938 25.5173 130.968 25.4516L139.302 7.6043C139.329 7.54568 139.325 7.47767 139.291 7.42352C139.257 7.36893 139.198 7.33582 139.134 7.33582Z" fill="#0A61F7"/>
<path fill-rule="evenodd" clip-rule="evenodd" d="M121.89 15.563H114.751C114.649 15.563 114.566 15.6471 114.566 15.7509V18.3942C114.566 18.498 114.649 18.5821 114.751 18.5821H118.734V21.8577C117.74 22.5316 116.714 22.8327 115.422 22.8327C113.645 22.8327 112.191 22.2429 111.101 21.0813C110.005 19.8905 109.449 18.3602 109.449 16.5336C109.449 14.6828 109.982 13.152 111.03 11.9854C112.1 10.7978 113.511 10.1955 115.225 10.1955C115.362 10.1955 118.584 10.2084 120.161 11.3186C120.217 11.3571 120.289 11.3625 120.35 11.3321L120.452 11.2801C120.542 11.2349 120.58 11.1249 120.537 11.0322L118.924 7.53653C118.901 7.48642 118.858 7.44927 118.806 7.43495C117.423 7.05012 115.682 7.02014 115.182 7.02014C112.547 7.02014 110.334 7.92852 108.604 9.72068C106.9 11.5115 106.036 13.8039 106.036 16.5336C106.036 19.2489 106.925 21.5337 108.679 23.3249C110.455 25.1158 112.724 26.0232 115.422 26.0232C118.191 26.0232 120.411 25.2106 122.02 23.6082C122.056 23.5728 122.075 23.5245 122.075 23.474V15.7509C122.075 15.6471 121.993 15.563 121.89 15.563Z" fill="#0A61F7"/>
<path fill-rule="evenodd" clip-rule="evenodd" d="M102.984 7.33582H99.9903C99.888 7.33582 99.8051 7.41994 99.8051 7.52376V18.1089L89.5751 7.41054C89.5403 7.3734 89.4922 7.35327 89.4424 7.35327H89.1672C89.0648 7.35327 88.9819 7.43739 88.9819 7.54076V25.371C88.9819 25.4748 89.0648 25.559 89.1672 25.559H92.1604C92.2623 25.559 92.3456 25.4748 92.3456 25.371V14.7626L102.597 25.5017C102.632 25.5384 102.68 25.559 102.73 25.559H102.984C103.085 25.559 103.169 25.4748 103.169 25.371V7.52376C103.169 7.41994 103.085 7.33582 102.984 7.33582Z" fill="#0A61F7"/>
<path fill-rule="evenodd" clip-rule="evenodd" d="M85.2883 7.33582H82.2951C82.1928 7.33582 82.1099 7.41994 82.1099 7.52376V25.371C82.1099 25.4748 82.1928 25.559 82.2951 25.559H85.2883C85.3906 25.559 85.4735 25.4748 85.4735 25.371V7.52376C85.4735 7.41994 85.3906 7.33582 85.2883 7.33582Z" fill="#0A61F7"/>
<path fill-rule="evenodd" clip-rule="evenodd" d="M78.8922 7.35303H75.5876C75.51 7.35303 75.4408 7.4018 75.4138 7.47564L71.7026 17.6974L67.729 7.47206C67.7012 7.40001 67.6324 7.35303 67.5566 7.35303H67.3634C67.2876 7.35303 67.2188 7.40046 67.191 7.4725L63.2377 17.6952L59.5507 7.47608C59.5238 7.40225 59.4541 7.35303 59.3769 7.35303H56.0481C55.9864 7.35303 55.929 7.3839 55.8946 7.43536C55.8602 7.48682 55.8532 7.5526 55.8761 7.61033L62.8707 25.4406C62.8989 25.5122 62.9673 25.5592 63.0432 25.5592H63.2227C63.2976 25.5592 63.3651 25.5131 63.3938 25.4424L67.4706 15.3678L71.5637 25.4424C71.5924 25.5131 71.6599 25.5592 71.7348 25.5592H71.9152C71.9911 25.5592 72.0594 25.5122 72.0872 25.4406L79.0646 7.61033C79.0871 7.55216 79.0796 7.48682 79.0452 7.43536C79.0108 7.3839 78.9535 7.35303 78.8922 7.35303Z" fill="#0A61F7"/>
<path fill-rule="evenodd" clip-rule="evenodd" d="M54.0206 16.661C53.105 15.8081 51.5372 15.1391 49.3589 14.6729C47.9534 14.3833 47.0008 14.0741 46.532 13.7569C46.0685 13.4217 45.8431 12.9715 45.8431 12.3804C45.8431 10.9673 46.8151 10.1887 48.5797 10.1887C50.2688 10.1887 52.0981 10.7212 53.2395 11.5454C53.2964 11.5875 53.3709 11.5933 53.4327 11.5588L53.5795 11.481C53.6629 11.4367 53.7004 11.3351 53.6655 11.2456L52.241 7.58075C52.2194 7.52482 52.1727 7.48275 52.1158 7.46754C51.0026 7.17489 49.7876 7.02051 48.6035 7.02051C46.7424 7.02051 45.2839 7.52034 44.1461 8.5491C43.0245 9.55995 42.4561 10.8984 42.4561 12.5258C42.4561 13.96 42.8971 15.0921 43.8091 15.9911C44.7269 16.8463 46.2784 17.5148 48.4227 17.9793C51.1067 18.5422 52.058 19.174 52.058 20.393C52.058 21.8889 50.8121 22.855 48.8844 22.855C46.7803 22.855 45.2786 22.2147 44.0155 20.7778C43.9802 20.738 43.9304 20.7152 43.8775 20.7152H43.7818C43.7055 20.7152 43.6371 20.7626 43.6093 20.8346L42.4869 23.7321C42.4583 23.8068 42.4794 23.8918 42.5398 23.9437C44.1266 25.3041 46.2877 26.0236 48.7887 26.0236C50.7817 26.0236 52.4673 25.4754 53.6642 24.4391C54.814 23.4399 55.4217 21.9484 55.4217 20.1263C55.4217 18.6679 54.9493 17.5014 54.0206 16.661Z" fill="#0A61F7"/>
<path fill-rule="evenodd" clip-rule="evenodd" d="M155.977 7.46844C155.944 7.40848 155.882 7.37134 155.814 7.37134H152.303C152.238 7.37134 152.178 7.4049 152.145 7.46083L147.806 14.6232L143.467 7.46083C143.434 7.4049 143.373 7.37134 143.309 7.37134H139.822C139.754 7.37134 139.691 7.40848 139.659 7.46844C139.626 7.5284 139.628 7.60224 139.664 7.65996L146.129 18.1144V25.484C146.129 25.5882 146.212 25.6728 146.315 25.6728H149.321C149.423 25.6728 149.507 25.5882 149.507 25.484V18.0661L155.971 7.66041C156.008 7.60224 156.01 7.52885 155.977 7.46844Z" fill="#0A61F7"/>
<path fill-rule="evenodd" clip-rule="evenodd" d="M33.9063 15.9851C33.8168 15.9793 33.7321 16.0639 33.6951 16.2066C33.0613 17.7585 32.1255 19.1251 31.4512 19.9995C29.9265 22.0266 28.409 23.6129 26.8112 24.8502C24.5095 26.6884 22.0825 28.0161 19.596 28.7956C16.7726 29.7505 13.9523 30.1658 11.2064 30.032H11.1125C11.0397 30.032 11.0005 30.0843 11.0005 30.1335C11.0005 30.1774 11.0314 30.2235 11.0896 30.2333C13.2135 31.4053 15.6881 32 18.445 32C23.8479 32 27.4312 29.4516 29.4868 27.3135C32.4302 24.251 34.1295 20.0894 34.0333 16.1816C34.0289 16.012 33.935 15.9883 33.9063 15.9851Z" fill="#0A61F7"/>
<path fill-rule="evenodd" clip-rule="evenodd" d="M8.94445 24.3129C9.06176 24.3129 9.1826 24.3124 9.3052 24.3107C9.33607 24.3107 9.3643 24.2914 9.37577 24.2623C9.38723 24.2332 9.38062 24.1997 9.35857 24.1777C7.37573 22.1735 6.40415 19.5132 6.40415 16.2654C6.40415 13.18 7.66504 10.0562 9.86266 7.6953C12.1692 5.2176 15.2136 3.85324 18.4357 3.85324C22.3493 3.85324 26.169 6.0253 28.4055 9.52146C28.4209 9.54473 28.45 9.55905 28.4729 9.55726C28.5003 9.55591 28.5245 9.5407 28.5373 9.51698C29.2205 8.25062 29.8833 6.59405 30.2247 5.69104C30.2555 5.60915 30.237 5.51831 30.1793 5.45342C27.0083 1.91028 22.7573 -0.0760778 18.5032 0.00223105C14.2301 0.00223105 10.2089 1.67401 7.21784 4.63096C4.21492 7.59953 2.56152 11.5875 2.56152 15.864C2.56152 17.3425 2.65855 20.1366 3.8449 22.3185C4.6921 23.8761 5.67426 24.3129 8.94445 24.3129Z" fill="#0A61F7"/>
<path fill-rule="evenodd" clip-rule="evenodd" d="M15.5384 28.3605L15.5287 28.3713C15.5507 28.3623 15.571 28.3525 15.5931 28.3435C20.4487 26.8015 24.9776 23.6173 28.4776 19.2476L28.4754 19.2561C28.5287 19.1908 28.5768 19.1255 28.6293 19.0601C28.6884 18.985 28.7479 18.9102 28.8061 18.8346C35.6967 10.0519 34.0137 2.4242 34.0137 2.4242L34.0128 2.42689C33.8823 1.73732 33.6613 1.08132 33.2891 0.64771C33.1925 0.525548 33.0029 0.392647 32.995 0.387277C32.972 0.370721 32.9416 0.368483 32.9169 0.381908C32.8918 0.394437 32.8759 0.420391 32.875 0.449029C32.875 0.449029 32.8649 0.744813 32.8649 0.790456C32.7815 2.74012 32.37 4.42757 31.3667 6.86454C31.3623 6.86991 31.3588 6.87573 31.3561 6.88244C30.8247 8.18102 29.9047 10.1692 28.5384 12.2799C28.53 12.2862 28.5234 12.2934 28.5177 12.3023C26.3889 15.7479 23.5637 18.6758 20.1202 21.0053C17.2019 23.0284 14.3922 24.4218 11.7685 25.1481C11.7637 25.149 11.7593 25.1512 11.7549 25.1535C11.6221 25.1964 10.2373 25.6193 8.61302 25.7209C7.0787 25.8166 4.85286 25.5902 3.4504 24.318C1.90374 22.9161 1.39568 20.1108 2.05633 16.5413C2.06251 16.5068 2.04619 16.4724 2.01532 16.4567C1.98489 16.441 1.9474 16.4478 1.92403 16.4737C-0.734901 19.4315 -0.181417 23.879 0.875273 25.5379C2.44223 27.9972 5.49587 29.3593 9.2106 29.3593C9.55725 29.3593 9.91006 29.3472 10.2673 29.3226C11.1224 29.2716 11.8228 29.1651 12.3361 29.0783C13.4056 28.906 14.4914 28.6903 15.5384 28.3605Z" fill="#0A61F7"/>
</g>
<defs>
<clipPath id="clip0">
<rect width="156" height="32" fill="white"/>
</clipPath>
</defs>
</svg>
